<?xml version="1.0" encoding="iso-8859-1"?>
<!-- Generator: Adobe Illustrator 19.0.0, SVG Export Plug-In . SVG Version: 6.00 Build 0)  -->
<svg version="1.1" id="Layer_1" xmlns="http://www.w3.org/2000/svg" xmlns:xlink="http://www.w3.org/1999/xlink" x="0px" y="0px"
	 viewBox="0 0 511.77 511.77" style="enable-background:new 0 0 511.77 511.77;" xml:space="preserve">
<g>
	<g>
		<g>
			<path d="M436.906,74.862c-8.341-8.341-21.824-8.341-30.165,0c-8.341,8.341-8.341,21.824,0,30.165
				c83.179,83.179,83.179,218.539,0,301.717c-8.341,8.32-8.341,21.824,0,30.165c4.16,4.16,9.621,6.251,15.083,6.251
				c5.461,0,10.923-2.091,15.083-6.251C536.724,337.092,536.724,174.681,436.906,74.862z" fill="#FF5151"/>
			<path d="M105.029,105.03c8.341-8.341,8.341-21.824,0-30.165c-8.341-8.341-21.824-8.341-30.165,0
				c-99.819,99.819-99.819,262.229,0,362.048c4.16,4.16,9.621,6.251,15.083,6.251c5.461,0,10.923-2.091,15.083-6.251
				c8.341-8.341,8.341-21.845,0-30.165C21.851,323.569,21.851,188.209,105.029,105.03z" fill="#FF5151"/>
			<path d="M255.884,85.218c-94.101,0-170.667,76.565-170.667,170.667s76.565,170.667,170.667,170.667
				S426.55,349.986,426.55,255.884S349.985,85.218,255.884,85.218z M255.884,149.218c11.776,0,21.333,9.557,21.333,21.333
				s-9.557,21.333-21.333,21.333s-21.333-9.557-21.333-21.333S244.108,149.218,255.884,149.218z M277.217,341.218H234.55
				c-11.797,0-21.333-9.557-21.333-21.333s9.536-21.333,21.333-21.333v-42.667c-11.797,0-21.333-9.557-21.333-21.333
				s9.536-21.333,21.333-21.333h21.333c11.797,0,21.333,9.557,21.333,21.333v64c11.797,0,21.333,9.557,21.333,21.333
				S289.014,341.218,277.217,341.218z" fill="#FF5151"/>
		</g>
	</g>
</g>
<g>
</g>
<g>
</g>
<g>
</g>
<g>
</g>
<g>
</g>
<g>
</g>
<g>
</g>
<g>
</g>
<g>
</g>
<g>
</g>
<g>
</g>
<g>
</g>
<g>
</g>
<g>
</g>
<g>
</g>
</svg>
